<?xml version="1.0" standalone="no"?>
<!DOCTYPE svg PUBLIC "-//W3C//DTD SVG 20010904//EN"
 "http://www.w3.org/TR/2001/REC-SVG-20010904/DTD/svg10.dtd">
<svg version="1.0" xmlns="http://www.w3.org/2000/svg"
 width="800.000000pt" height="600.000000pt" viewBox="0 0 800.000000 600.000000"
 preserveAspectRatio="xMidYMid meet">

<g transform="translate(0.000000,600.000000) scale(0.100000,-0.100000)"
fill="#000000" stroke="none">
<path d="M4760 4805 l-395 -395 -584 -2 -585 -3 -157 -325 -157 -325 531 -532
532 -533 462 462 463 463 0 210 0 211 55 54 55 54 0 170 0 171 90 90 90 91 -2
267 -3 267 -395 -395z m-452 -832 l-743 -743 -55 55 -55 55 795 795 795 795 3
-107 3 -107 -743 -743z m5 -375 l-558 -558 -55 55 -55 55 610 610 610 610 3
-107 3 -107 -558 -558z m40 -340 l-408 -408 -55 55 -55 55 460 460 460 460 3
-107 3 -107 -408 -408z"/>
<path d="M5845 2285 c-50 -50 -23 -130 47 -142 32 -5 41 -1 68 25 33 34 37 59
15 101 -25 49 -90 57 -130 16z"/>
<path d="M6107 2303 c-4 -3 -7 -183 -7 -400 l0 -393 75 0 75 0 0 400 0 400
-68 0 c-38 0 -72 -3 -75 -7z"/>
<path d="M1732 1893 l3 -378 73 -3 72 -3 1 233 0 233 70 -137 69 -138 69 0 68
0 71 138 71 137 1 -232 0 -233 70 0 70 0 0 380 0 380 -68 0 -67 0 -105 -210
c-58 -115 -107 -210 -110 -210 -3 0 -52 95 -110 210 l-105 210 -72 0 -73 0 2
-377z"/>
<path d="M3860 2155 l0 -75 -40 0 -40 0 0 -60 0 -60 39 0 39 0 4 -172 c4 -193
13 -224 71 -255 18 -9 65 -18 110 -21 l77 -5 0 62 0 61 -39 0 c-67 0 -71 11
-71 181 l0 149 60 0 60 0 0 60 0 60 -60 0 -60 0 0 75 0 75 -75 0 -75 0 0 -75z"/>
<path d="M2730 2075 c-102 -32 -158 -113 -167 -243 -14 -198 69 -314 235 -329
126 -12 220 35 268 133 25 52 28 68 28 158 0 87 -4 109 -26 157 -15 33 -40 67
-61 83 -70 53 -183 70 -277 41z m166 -116 c41 -20 54 -60 54 -164 0 -73 -4
-104 -17 -126 -20 -34 -64 -54 -115 -52 -85 4 -108 42 -108 180 0 80 4 104 20
130 29 49 103 63 166 32z"/>
<path d="M3425 2078 c-16 -6 -42 -22 -57 -36 l-28 -26 0 32 0 32 -70 0 -70 0
0 -285 0 -286 73 3 72 3 5 198 5 199 28 24 c39 33 105 33 144 0 l28 -24 3
-202 3 -201 72 3 72 3 3 180 c4 259 -16 326 -108 373 -48 24 -122 28 -175 10z"/>
<path d="M4356 2075 c-58 -22 -103 -61 -128 -108 -18 -34 -23 -64 -26 -150 -5
-136 7 -186 62 -243 110 -113 337 -92 417 40 34 55 27 66 -41 66 -49 0 -61 -3
-70 -20 -25 -47 -133 -68 -183 -36 -28 19 -47 56 -47 91 l0 25 185 0 185 0 0
68 c0 179 -80 272 -239 279 -50 2 -89 -2 -115 -12z m154 -100 c39 -20 60 -53
60 -92 l0 -33 -115 0 -115 0 0 25 c0 84 94 139 170 100z"/>
<path d="M5390 2081 c-43 -14 -84 -38 -106 -63 -20 -21 -54 -80 -54 -93 0 -3
29 -5 64 -5 47 0 67 4 77 17 23 27 77 44 115 37 50 -9 74 -45 74 -110 l0 -53
-42 19 c-29 13 -66 20 -114 20 -96 0 -164 -33 -193 -94 -50 -101 -8 -203 98
-241 78 -27 170 -17 234 27 l27 19 0 -25 c0 -25 2 -26 70 -26 l70 0 0 199 c0
121 -4 211 -11 232 -31 92 -102 140 -214 145 -38 2 -81 0 -95 -5z m119 -332
c59 -21 69 -82 20 -123 -25 -21 -41 -26 -86 -26 -47 0 -59 4 -84 29 -33 33
-36 56 -13 89 28 41 98 54 163 31z"/>
<path d="M4810 1795 l0 -285 75 0 75 0 0 155 c0 171 8 206 55 243 15 12 49 25
76 28 l49 7 0 68 0 69 -37 0 c-51 0 -103 -28 -130 -69 l-23 -34 0 52 0 51 -70
0 -70 0 0 -285z"/>
<path d="M5830 1795 l0 -286 73 3 72 3 3 283 2 282 -75 0 -75 0 0 -285z"/>
</g>
</svg>
